<?xml version="1.0" encoding="UTF-8"?>
<svg id="Layer_2" data-name="Layer 2" xmlns="http://www.w3.org/2000/svg" viewBox="0 0 1065.94 294.82">
  <defs>
    <style>
      .cls-1 {
        fill: #3d5a73;
      }

      .cls-2 {
        fill: #2a1f14;
        font-family: Fraunces72ptSoft-Regular, 'Fraunces 72pt Soft';
        font-size: 247.28px;
      }
    </style>
  </defs>
  <g id="Layer_1-2" data-name="Layer 1">
    <g>
      <text class="cls-2" transform="translate(317.43 233.37)"><tspan x="0" y="0">Crutan</tspan></text>
      <path class="cls-1" d="M296.23,118.89L236.38,15.23c-5.44-9.43-15.5-15.23-26.38-15.23h-119.69c-10.88,0-20.94,5.81-26.38,15.23L4.08,118.89c-5.44,9.43-5.44,21.04,0,30.47l59.84,103.65c5.44,9.43,15.5,15.23,26.38,15.23h119.69c10.88,0,20.94-5.81,26.38-15.23l59.84-103.65c5.44-9.43,5.44-21.04,0-30.47ZM281.36,149.35l-44.09,76.37c-5.44,9.43-15.5,15.23-26.38,15.23h-88.18c-10.88,0-20.94-5.81-26.38-15.23l-44.09-76.37c-5.44-9.43-5.44-21.04,0-30.47l44.09-76.37c5.44-9.43,15.5-15.23,26.38-15.23h88.18c10.88,0,20.94,5.81,26.38,15.23l44.09,76.37c5.44,9.43,5.44,21.04,0,30.47Z"/>
      <path class="cls-1" d="M270.34,124.05l-39.55-68.51c-3.6-6.23-10.24-10.07-17.44-10.07h-79.11c-7.19,0-13.84,3.84-17.44,10.07l-39.55,68.51c-3.6,6.23-3.6,13.91,0,20.14l39.55,68.51c3.6,6.23,10.24,10.07,17.44,10.07h79.11c7.19,0,13.84-3.84,17.44-10.07l39.55-68.51c3.6-6.23,3.6-13.91,0-20.14ZM260.51,144.19l-29.14,50.47c-3.6,6.23-10.24,10.07-17.44,10.07h-58.28c-7.19,0-13.84-3.84-17.44-10.07l-29.14-50.47c-3.6-6.23-3.6-13.91,0-20.14l29.14-50.48c3.6-6.23,10.24-10.07,17.44-10.07h58.28c7.19,0,13.84,3.84,17.44,10.07l29.14,50.48c3.6,6.23,3.6,13.91,0,20.14Z"/>
    </g>
  </g>
</svg>